# xmcd
#
# Track frame offsets: 
#        150
#        5001
#        24029
#        63821
#        72087
#        97882
#        134720
#        159559
#        186136
#        213962
#        224757
#        242000
#
# Disc length: 3559 seconds
#
# Revision: 0
# Processed by: cddbd v1.5.2PL0 Copyright (c) Steve Scherf et al.
# Submitted via: ExactAudioCopy v0.99pb4
#
DISCID=a30de50c
DTITLE=Muddy Waters - Live At My Father's Place, Roslyn - March 18,197
DTITLE=9
DYEAR=2009
DGENRE=Blues
TTITLE0=Intro
TTITLE1=Instrumental
TTITLE2=Walking The Blues
TTITLE3=Muddy Intro
TTITLE4=Nine Below Zero
TTITLE5=They Call Me Muddy Waters
TTITLE6=Walking Through The Park (with J. Winter)
TTITLE7=Got My Mojo Working (with J. Winter)
TTITLE8=Manish Boy (with J. Winter)
TTITLE9=Outro Jam
TTITLE10=Kansas City Here I Come
TTITLE11=Bare Footin'
EXTD=
EXTT0=
EXTT1=
EXTT2=
EXTT3=
EXTT4=
EXTT5=
EXTT6=
EXTT7=
EXTT8=
EXTT9=
EXTT10=
EXTT11=
PLAYORDER=
